<?xml version="1.0" encoding="utf-8"?>
<!-- Generator: Adobe Illustrator 24.1.1, SVG Export Plug-In . SVG Version: 6.00 Build 0)  -->
<svg version="1.1" id="SendMoneyIcon" xmlns="http://www.w3.org/2000/svg" xmlns:xlink="http://www.w3.org/1999/xlink" x="0px"
	 y="0px" viewBox="0 0 40.1 36.5" style="enable-background:new 0 0 40.1 36.5;" xml:space="preserve">
<style type="text/css">
	.st0{fill:#0E9347;}
	.st1{fill:#0D8944;}
	.st2{fill:#FFFFFF;}
	.st3{fill:#89C763;}
	.st4{fill:#FFCA5D;}
	.st5{fill:#F6B545;}
	.st6{fill:#FFCB5B;}
	.st7{fill:#FFE27A;}
	.st8{fill:#F19920;}
	.st9{fill:#E78825;}
</style>
<g id="Group_33" transform="translate(-46 -122.909)">
	<path id="Path_141" class="st0" d="M84.3,146.6H47.8c-1,0-1.8-0.8-1.8-1.8v-20.1c0-1,0.8-1.8,1.8-1.8h36.5c1,0,1.8,0.8,1.8,1.8
		v20.1C86.1,145.8,85.3,146.6,84.3,146.6z"/>
	<path id="Path_142" class="st1" d="M79.7,139.3c-2,0-3.9,1-5.1,2.6c-1-0.5-2-0.8-3.1-0.8c-3.2,0-5.8,2.3-6.3,5.5h19
		c0.9,0,1.7-0.7,1.8-1.5C85.7,141.8,83,139.3,79.7,139.3z"/>
	<path id="Path_143" class="st2" d="M80.6,144.8H51.5c0-2-1.6-3.6-3.6-3.6v-12.8c2,0,3.6-1.6,3.6-3.6h29.2c0,2,1.6,3.6,3.6,3.6v12.8
		C82.3,141.1,80.6,142.8,80.6,144.8z"/>
	<g id="Group_29" transform="translate(53.291 126.555)">
		<path id="Path_144" class="st0" d="M26.4,12.8c-2,0-3.9,1-5.1,2.6c-1-0.5-2-0.8-3.1-0.8c-2.5,0-4.7,1.4-5.7,3.6h14.9
			c0-2,1.6-3.6,3.6-3.6C29.7,13.4,28.1,12.8,26.4,12.8z"/>
		<ellipse id="Ellipse_47" class="st0" cx="12.8" cy="8.2" rx="7.3" ry="8.2"/>
		<circle id="Ellipse_48" class="st0" cx="1.8" cy="8.2" r="1.8"/>
		<circle id="Ellipse_49" class="st0" cx="23.7" cy="8.2" r="1.8"/>
	</g>
	<path id="Path_145" class="st3" d="M67,133.8h-1.8c-0.5,0-0.9-0.4-0.9-0.9c0-0.5,0.4-0.9,0.9-0.9h2.7c0.5,0,0.9-0.4,0.9-0.9
		c0-0.5-0.4-0.9-0.9-0.9H67c0-0.5-0.4-0.9-0.9-0.9s-0.9,0.4-0.9,0.9c-1.5,0-2.7,1.2-2.7,2.7s1.2,2.7,2.7,2.7H67
		c0.5,0,0.9,0.4,0.9,0.9c0,0.5-0.4,0.9-0.9,0.9h-2.7c-0.5,0-0.9,0.4-0.9,0.9c0,0.5,0.4,0.9,0.9,0.9h0.9c0,0.5,0.4,0.9,0.9,0.9
		s0.9-0.4,0.9-0.9c1.5,0,2.7-1.2,2.7-2.7S68.5,133.8,67,133.8z"/>
	<circle id="Ellipse_50" class="st4" cx="69.7" cy="147.5" r="6.4"/>
	<circle id="Ellipse_51" class="st5" cx="77.9" cy="145.7" r="6.4"/>
	<path id="Path_146" class="st6" d="M77.9,139.3c-3.5,0-6.4,2.9-6.4,6.4s2.9,6.4,6.4,6.4c3.5,0,6.4-2.9,6.4-6.4
		C84.3,142.2,81.5,139.3,77.9,139.3C78,139.3,77.9,139.3,77.9,139.3z M77.9,150.3c-2.5,0-4.6-2-4.6-4.6c0-2.5,2-4.6,4.6-4.6
		c2.5,0,4.6,2,4.6,4.6C82.5,148.2,80.5,150.2,77.9,150.3C78,150.3,77.9,150.3,77.9,150.3z"/>
	<path id="Path_147" class="st5" d="M77.9,152L77.9,152c3.5,0.1,6.3-2.7,6.4-6.1c0,0,0-0.1,0-0.1h-0.1c-0.5,0-0.8,0.4-0.9,0.8
		c-0.2,1.3-0.8,2.4-1.7,3.3c-0.8,0.7-1.8,1.2-2.8,1.4C78.3,151.2,77.9,151.5,77.9,152C77.9,152,77.9,152,77.9,152z"/>
	<path id="Path_148" class="st7" d="M77.9,139.4L77.9,139.4c-3.5-0.1-6.3,2.7-6.4,6.1c0,0,0,0.1,0,0.1h0.1c0.5,0,0.8-0.4,0.9-0.8
		c0.2-1.3,0.8-2.4,1.7-3.3c0.8-0.7,1.8-1.2,2.8-1.4C77.5,140.2,77.9,139.9,77.9,139.4C77.9,139.4,77.9,139.4,77.9,139.4z"/>
	<path id="Path_149" class="st8" d="M74,146.3c0-2.5,2-4.5,4.5-4.6c0,0,0.1,0,0.1,0c1.1,0,2.1,0.4,2.9,1.1c-1.6-2-4.4-2.3-6.4-0.8
		c-1.1,0.9-1.7,2.2-1.7,3.6c0,1.3,0.6,2.6,1.6,3.5C74.3,148.4,74,147.4,74,146.3z"/>
	<path id="Path_150" class="st6" d="M80.6,148.5c-0.1,0-0.2,0-0.3-0.1c-0.2-0.2-0.2-0.4,0-0.6c0,0,0,0,0,0c0.5-0.6,0.8-1.3,0.8-2.1
		c0-0.3,0.2-0.4,0.5-0.4c0.2,0,0.4,0.2,0.4,0.4c0,1-0.4,2-1,2.7C80.9,148.5,80.8,148.5,80.6,148.5z"/>
	<g id="Group_30" transform="translate(71.61 141.137)">
		<path id="Path_151" class="st8" d="M6.3,7.3C5.8,7.3,5.4,7,5.4,6.5c0,0,0-0.1,0-0.1V2.7c0-0.5,0.4-0.9,0.9-0.9s0.9,0.4,0.9,0.9
			v3.6c0,0.5-0.3,0.9-0.8,0.9C6.4,7.3,6.3,7.3,6.3,7.3z"/>
		<path id="Path_152" class="st8" d="M9.7,9.9C9.1,7.7,7.4,5.9,5.3,5C4.9,2.9,3.6,1.1,1.8,0C0.7,1.2,0,2.8,0,4.5
			c0,3.5,2.8,6.4,6.3,6.4c0,0,0.1,0,0.1,0C7.5,10.9,8.7,10.6,9.7,9.9z"/>
	</g>
	<g id="Group_31" transform="translate(73.342 142.322)">
		<path id="Path_153" class="st9" d="M1.6,6.8C1,6,0.6,5,0.5,3.9c0-1.3,0.5-2.4,1.5-3.3C1.8,0.4,1.7,0.2,1.5,0C0.5,0.9,0,2.1,0,3.4
			C0,4.7,0.6,6,1.6,6.8z"/>
		<path id="Path_154" class="st9" d="M3.6,3.9v1.3c0,0.5,0.4,0.9,0.9,0.9s0.9-0.4,0.9-0.9V5C4.9,4.6,4.3,4.2,3.6,3.9z"/>
	</g>
	<path id="Path_155" class="st5" d="M81.3,151.1c-0.1-0.6-0.4-1.2-0.7-1.7c-0.8,0.6-1.7,0.9-2.6,0.9c-2.5,0-4.5-2-4.6-4.5
		c0,0,0-0.1,0-0.1c0-1.3,0.5-2.5,1.5-3.4c-0.4-0.4-0.9-0.8-1.5-1.1c-1.2,1.2-1.8,2.8-1.8,4.5c0,3.5,2.8,6.4,6.3,6.4c0,0,0.1,0,0.1,0
		C79.1,152.1,80.3,151.7,81.3,151.1z"/>
	<path id="Path_156" class="st8" d="M81,150.3c-0.7,0.5-1.5,0.8-2.3,0.9c-0.5,0.1-0.8,0.5-0.8,0.9l0,0c1.2,0,2.4-0.3,3.4-1L81,150.3
		z"/>
	<path id="Path_157" class="st6" d="M73.3,141.2c-1.2,1.2-1.8,2.8-1.8,4.5h0.1c0.5,0,0.8-0.4,0.9-0.8c0.2-1.2,0.8-2.3,1.6-3.2
		C73.9,141.6,73.6,141.4,73.3,141.2z"/>
	<circle id="Ellipse_52" class="st5" cx="69.7" cy="147.5" r="6.4"/>
	<path id="Path_158" class="st8" d="M68.8,152.1c0,0.6,0.1,1.2,0.3,1.8h0.6c3.5,0,6.4-2.8,6.4-6.3c0-0.6-0.1-1.3-0.3-1.9h-0.6
		C71.7,145.7,68.8,148.5,68.8,152.1C68.8,152,68.8,152,68.8,152.1z"/>
	<path id="Path_159" class="st6" d="M69.7,141.1c-3.5,0-6.4,2.9-6.4,6.4c0,3.5,2.9,6.4,6.4,6.4c3.5,0,6.4-2.9,6.4-6.4
		C76.1,144,73.3,141.2,69.7,141.1C69.7,141.1,69.7,141.1,69.7,141.1z M69.7,152.1c-2.5,0-4.6-2-4.6-4.6s2-4.6,4.6-4.6
		c2.5,0,4.6,2,4.6,4.6C74.3,150,72.3,152,69.7,152.1C69.8,152.1,69.7,152.1,69.7,152.1z"/>
	<path id="Path_160" class="st5" d="M69.7,153.8L69.7,153.8c3.5,0.1,6.3-2.7,6.4-6.1c0,0,0-0.1,0-0.1H76c-0.5,0-0.8,0.4-0.9,0.8
		c-0.2,1.3-0.8,2.4-1.7,3.3c-0.8,0.7-1.8,1.2-2.8,1.4C70.1,153,69.7,153.3,69.7,153.8C69.7,153.8,69.7,153.8,69.7,153.8z"/>
	<path id="Path_161" class="st7" d="M69.7,141.2L69.7,141.2c-3.5-0.1-6.3,2.7-6.4,6.1c0,0,0,0.1,0,0.1h0.1c0.5,0,0.8-0.4,0.9-0.8
		c0.2-1.3,0.8-2.4,1.7-3.3c0.8-0.7,1.8-1.2,2.8-1.4C69.3,142.1,69.7,141.7,69.7,141.2C69.7,141.2,69.7,141.2,69.7,141.2z"/>
	<path id="Path_162" class="st8" d="M65.8,148.2c0-2.5,2-4.5,4.5-4.6c0,0,0.1,0,0.1,0c1.1,0,2.1,0.4,2.9,1.1c-1.6-2-4.4-2.3-6.4-0.8
		c-1.1,0.9-1.7,2.2-1.7,3.6c0,1.3,0.6,2.6,1.6,3.5C66.1,150.2,65.8,149.2,65.8,148.2z"/>
	<path id="Path_163" class="st6" d="M72.4,150.3c-0.1,0-0.2,0-0.3-0.1c-0.2-0.2-0.2-0.4,0-0.6c0,0,0,0,0,0c0.5-0.6,0.8-1.3,0.8-2.1
		c0-0.3,0.2-0.5,0.4-0.5c0.3,0,0.5,0.2,0.5,0.4c0,0,0,0,0,0c0,1-0.4,2-1,2.7C72.7,150.3,72.6,150.3,72.4,150.3z"/>
	<path id="Path_164" class="st8" d="M69.7,150.3c-0.5,0-0.9-0.3-0.9-0.8c0,0,0-0.1,0-0.1v-3.6c0-0.5,0.4-0.9,0.9-0.9
		s0.9,0.4,0.9,0.9v3.6c0,0.5-0.3,0.9-0.8,0.9C69.8,150.3,69.7,150.3,69.7,150.3z"/>
	<g id="Group_32" transform="translate(67.873 145.694)">
		<path id="Path_165" class="st5" d="M6,0.1c0.2,0.6,0.3,1.1,0.4,1.7c0,2.5-2,4.5-4.5,4.6c0,0-0.1,0-0.1,0c-0.3,0-0.6,0-0.9-0.1v0.1
			C0.9,7,1,7.6,1.2,8.2h0.6c3.5,0,6.4-2.8,6.4-6.3c0-0.6-0.1-1.3-0.3-1.9H7.3C6.9,0,6.4,0,6,0.1z"/>
		<circle id="Ellipse_53" class="st5" cx="6.4" cy="7.3" r="6.4"/>
	</g>
	<path id="Path_166" class="st6" d="M74.3,146.6c-3.5,0-6.4,2.9-6.4,6.4s2.9,6.4,6.4,6.4c3.5,0,6.4-2.9,6.4-6.4
		C80.7,149.5,77.8,146.6,74.3,146.6C74.3,146.6,74.3,146.6,74.3,146.6z M74.3,157.5c-2.5,0-4.6-2-4.6-4.6c0-2.5,2-4.6,4.6-4.6
		c2.5,0,4.6,2,4.6,4.6C78.8,155.5,76.8,157.5,74.3,157.5C74.3,157.5,74.3,157.5,74.3,157.5z"/>
	<path id="Path_167" class="st5" d="M74.3,159.3L74.3,159.3c3.5,0.1,6.3-2.7,6.4-6.1c0,0,0-0.1,0-0.1h-0.1c-0.5,0-0.8,0.4-0.9,0.8
		c-0.2,1.3-0.8,2.4-1.7,3.3c-0.8,0.7-1.8,1.2-2.8,1.4C74.6,158.5,74.3,158.8,74.3,159.3C74.3,159.3,74.3,159.3,74.3,159.3z"/>
	<path id="Path_168" class="st7" d="M74.3,146.7L74.3,146.7c-3.5-0.1-6.3,2.7-6.4,6.1c0,0,0,0.1,0,0.1H68c0.5,0,0.8-0.4,0.9-0.8
		c0.2-1.3,0.8-2.4,1.7-3.3c0.8-0.7,1.8-1.2,2.8-1.4C73.9,147.5,74.3,147.2,74.3,146.7C74.3,146.7,74.3,146.7,74.3,146.7z"/>
	<path id="Path_169" class="st8" d="M70.3,153.6c0-2.5,2-4.5,4.5-4.6c0,0,0.1,0,0.1,0c1.1,0,2.1,0.4,2.9,1.1c-1.6-2-4.4-2.3-6.4-0.8
		c-1.1,0.9-1.7,2.2-1.7,3.6c0,1.3,0.6,2.6,1.6,3.5C70.7,155.7,70.3,154.7,70.3,153.6z"/>
	<path id="Path_170" class="st6" d="M77,155.8c-0.1,0-0.2,0-0.3-0.1c-0.2-0.2-0.2-0.4,0-0.6c0,0,0,0,0,0c0.5-0.6,0.8-1.3,0.8-2.1
		c0-0.3,0.2-0.5,0.4-0.5c0.3,0,0.5,0.2,0.5,0.4c0,0,0,0,0,0c0,1-0.4,2-1,2.7C77.3,155.8,77.1,155.8,77,155.8z"/>
	<path id="Path_171" class="st8" d="M74.3,155.7c-0.5,0-0.9-0.3-0.9-0.8c0,0,0-0.1,0-0.1v-3.6c0-0.5,0.4-0.9,0.9-0.9
		s0.9,0.4,0.9,0.9v3.6c0,0.5-0.3,0.9-0.8,0.9C74.3,155.7,74.3,155.7,74.3,155.7z"/>
</g>
</svg>
